TITLE ""
FILE "P1Q_t_0459-0468.mp3" MP3
  TRACK 01 AUDIO
    TITLE "P1Q_t_0459-0468_01"
    INDEX 01 00:00:00
  TRACK 02 AUDIO
    TITLE "P1Q_t_0459-0468_02"
    INDEX 01 00:01:27
  TRACK 03 AUDIO
    TITLE "P1Q_t_0459-0468_03"
    INDEX 01 00:01:47
  TRACK 04 AUDIO
    TITLE "P1Q_t_0459-0468_04"
    INDEX 01 00:03:32
  TRACK 05 AUDIO
    TITLE "P1Q_t_0459-0468_05"
    INDEX 01 00:03:52
  TRACK 06 AUDIO
    TITLE "P1Q_t_0459-0468_06"
    INDEX 01 00:07:69
  TRACK 07 AUDIO
    TITLE "P1Q_t_0459-0468_07"
    INDEX 01 00:08:16
  TRACK 08 AUDIO
    TITLE "P1Q_t_0459-0468_08"
    INDEX 01 00:09:21
  TRACK 09 AUDIO
    TITLE "P1Q_t_0459-0468_09"
    INDEX 01 00:09:46
  TRACK 10 AUDIO
    TITLE "P1Q_t_0459-0468_10"
    INDEX 01 00:12:57
  TRACK 11 AUDIO
    TITLE "P1Q_t_0459-0468_11"
    INDEX 01 00:13:01
  TRACK 12 AUDIO
    TITLE "P1Q_t_0459-0468_12"
    INDEX 01 00:17:71
  TRACK 13 AUDIO
    TITLE "P1Q_t_0459-0468_13"
    INDEX 01 00:18:18
  TRACK 14 AUDIO
    TITLE "P1Q_t_0459-0468_14"
    INDEX 01 00:19:29
  TRACK 15 AUDIO
    TITLE "P1Q_t_0459-0468_15"
    INDEX 01 00:19:49
  TRACK 16 AUDIO
    TITLE "P1Q_t_0459-0468_16"
    INDEX 01 00:21:63
  TRACK 17 AUDIO
    TITLE "P1Q_t_0459-0468_17"
    INDEX 01 00:22:10
  TRACK 18 AUDIO
    TITLE "P1Q_t_0459-0468_18"
    INDEX 01 00:26:31
  TRACK 19 AUDIO
    TITLE "P1Q_t_0459-0468_19"
    INDEX 01 00:26:51
  TRACK 20 AUDIO
    TITLE "P1Q_t_0459-0468_20"
    INDEX 01 00:27:62
  TRACK 21 AUDIO
    TITLE "P1Q_t_0459-0468_21"
    INDEX 01 00:28:07
  TRACK 22 AUDIO
    TITLE "P1Q_t_0459-0468_22"
    INDEX 01 00:32:06
  TRACK 23 AUDIO
    TITLE "P1Q_t_0459-0468_23"
    INDEX 01 00:32:26
  TRACK 24 AUDIO
    TITLE "P1Q_t_0459-0468_24"
    INDEX 01 00:39:38
  TRACK 25 AUDIO
    TITLE "P1Q_t_0459-0468_25"
    INDEX 01 00:39:59
  TRACK 26 AUDIO
    TITLE "P1Q_t_0459-0468_26"
    INDEX 01 00:41:15
  TRACK 27 AUDIO
    TITLE "P1Q_t_0459-0468_27"
    INDEX 01 00:41:37
  TRACK 28 AUDIO
    TITLE "P1Q_t_0459-0468_28"
    INDEX 01 00:45:64
  TRACK 29 AUDIO
    TITLE "P1Q_t_0459-0468_29"
    INDEX 01 00:46:08
  TRACK 30 AUDIO
    TITLE "P1Q_t_0459-0468_30"
    INDEX 01 00:50:22
  TRACK 31 AUDIO
    TITLE "P1Q_t_0459-0468_31"
    INDEX 01 00:50:43
  TRACK 32 AUDIO
    TITLE "P1Q_t_0459-0468_32"
    INDEX 01 00:52:11
  TRACK 33 AUDIO
    TITLE "P1Q_t_0459-0468_33"
    INDEX 01 00:52:33
  TRACK 34 AUDIO
    TITLE "P1Q_t_0459-0468_34"
    INDEX 01 00:53:59
  TRACK 35 AUDIO
    TITLE "P1Q_t_0459-0468_35"
    INDEX 01 00:54:04
  TRACK 36 AUDIO
    TITLE "P1Q_t_0459-0468_36"
    INDEX 01 01:00:22
  TRACK 37 AUDIO
    TITLE "P1Q_t_0459-0468_37"
    INDEX 01 01:00:44
  TRACK 38 AUDIO
    TITLE "P1Q_t_0459-0468_38"
    INDEX 01 01:01:69
  TRACK 39 AUDIO
    TITLE "P1Q_t_0459-0468_39"
    INDEX 01 01:02:15
  TRACK 40 AUDIO
    TITLE "P1Q_t_0459-0468_40"
    INDEX 01 01:04:63
  TRACK 41 AUDIO
    TITLE "P1Q_t_0459-0468_41"
    INDEX 01 01:05:08
  TRACK 42 AUDIO
    TITLE "P1Q_t_0459-0468_42"
    INDEX 01 01:10:32
  TRACK 43 AUDIO
    TITLE "P1Q_t_0459-0468_43"
    INDEX 01 01:10:52
  TRACK 44 AUDIO
    TITLE "P1Q_t_0459-0468_44"
    INDEX 01 01:11:75
  TRACK 45 AUDIO
    TITLE "P1Q_t_0459-0468_45"
    INDEX 01 01:12:24
  TRACK 46 AUDIO
    TITLE "P1Q_t_0459-0468_46"
    INDEX 01 01:14:28
  TRACK 47 AUDIO
    TITLE "P1Q_t_0459-0468_47"
    INDEX 01 01:14:50
  TRACK 48 AUDIO
    TITLE "P1Q_t_0459-0468_48"
    INDEX 01 01:21:03
  TRACK 49 AUDIO
    TITLE "P1Q_t_0459-0468_49"
    INDEX 01 01:21:24
  TRACK 50 AUDIO
    TITLE "P1Q_t_0459-0468_50"
    INDEX 01 01:22:49
  TRACK 51 AUDIO
    TITLE "P1Q_t_0459-0468_51"
    INDEX 01 01:22:71
  TRACK 52 AUDIO
    TITLE "P1Q_t_0459-0468_52"
    INDEX 01 01:25:50
  TRACK 53 AUDIO
    TITLE "P1Q_t_0459-0468_53"
    INDEX 01 01:25:71
  TRACK 54 AUDIO
    TITLE "P1Q_t_0459-0468_54"
    INDEX 01 01:31:40
  TRACK 55 AUDIO
    TITLE "P1Q_t_0459-0468_55"
    INDEX 01 01:31:62
  TRACK 56 AUDIO
    TITLE "P1Q_t_0459-0468_56"
    INDEX 01 01:32:65
  TRACK 57 AUDIO
    TITLE "P1Q_t_0459-0468_57"
    INDEX 01 01:33:12
  TRACK 58 AUDIO
    TITLE "P1Q_t_0459-0468_58"
    INDEX 01 01:34:02
  TRACK 59 AUDIO
    TITLE "P1Q_t_0459-0468_59"
    INDEX 01 01:34:21
  TRACK 60 AUDIO
    TITLE "P1Q_t_0459-0468_60"
    INDEX 01 01:38:11
